<mxfile host="app.diagrams.net" modified="2022-06-08T05:13:21.288Z" agent="5.0 (Macintosh; Intel Mac OS X 10_15_7) AppleWebKit/537.36 (KHTML, like Gecko) Chrome/102.0.5005.61 Safari/537.36" etag="L1DdZud0_fyyvSgEtScW" version="19.0.2" type="github" pages="3">
  <diagram id="K93F-Z6blu4QGJrisAh4" name="Page-1">
    <mxGraphModel dx="1798" dy="1058" grid="1" gridSize="10" guides="1" tooltips="1" connect="1" arrows="1" fold="1" page="1" pageScale="1" pageWidth="827" pageHeight="1169" math="0" shadow="0">
      <root>
        <mxCell id="0" />
        <mxCell id="1" parent="0" />
        <mxCell id="pVQryn7kTx1md9agL7nV-1" value="" style="rounded=0;whiteSpace=wrap;html=1;" vertex="1" parent="1">
          <mxGeometry x="69" y="100" width="690" height="440" as="geometry" />
        </mxCell>
        <mxCell id="pVQryn7kTx1md9agL7nV-2" value="" style="endArrow=none;html=1;rounded=0;exitX=-0.001;exitY=0.141;exitDx=0;exitDy=0;exitPerimeter=0;entryX=1.001;entryY=0.139;entryDx=0;entryDy=0;entryPerimeter=0;" edge="1" parent="1" source="pVQryn7kTx1md9agL7nV-1" target="pVQryn7kTx1md9agL7nV-1">
          <mxGeometry width="50" height="50" relative="1" as="geometry">
            <mxPoint x="300" y="190" as="sourcePoint" />
            <mxPoint x="350" y="140" as="targetPoint" />
          </mxGeometry>
        </mxCell>
        <mxCell id="pVQryn7kTx1md9agL7nV-3" value="&lt;font style=&quot;font-size: 33px;&quot;&gt;iWatch&lt;/font&gt;" style="text;html=1;strokeColor=none;fillColor=none;align=center;verticalAlign=middle;whiteSpace=wrap;rounded=0;" vertex="1" parent="1">
          <mxGeometry x="80" y="120" width="280" height="30" as="geometry" />
        </mxCell>
        <mxCell id="pVQryn7kTx1md9agL7nV-4" value="" style="shape=image;html=1;verticalAlign=top;verticalLabelPosition=bottom;labelBackgroundColor=#ffffff;imageAspect=0;aspect=fixed;image=https://cdn1.iconfinder.com/data/icons/science-technology-outline-24-px/24/Body_organ_eye_optical_view_visual-128.png;fontSize=33;" vertex="1" parent="1">
          <mxGeometry x="670" y="110" width="50" height="50" as="geometry" />
        </mxCell>
        <mxCell id="pVQryn7kTx1md9agL7nV-5" value="" style="rounded=1;whiteSpace=wrap;html=1;fontSize=33;" vertex="1" parent="1">
          <mxGeometry x="220" y="260" width="450" height="170" as="geometry" />
        </mxCell>
        <mxCell id="pVQryn7kTx1md9agL7nV-6" value="&lt;font style=&quot;font-size: 25px;&quot;&gt;Email&lt;/font&gt;" style="text;html=1;strokeColor=none;fillColor=none;align=center;verticalAlign=middle;whiteSpace=wrap;rounded=0;fontSize=33;" vertex="1" parent="1">
          <mxGeometry x="290" y="290" width="60" height="30" as="geometry" />
        </mxCell>
        <mxCell id="pVQryn7kTx1md9agL7nV-7" value="&lt;font style=&quot;font-size: 25px;&quot;&gt;Passowrd&lt;/font&gt;" style="text;html=1;strokeColor=none;fillColor=none;align=center;verticalAlign=middle;whiteSpace=wrap;rounded=0;fontSize=33;" vertex="1" parent="1">
          <mxGeometry x="270" y="330" width="60" height="30" as="geometry" />
        </mxCell>
        <mxCell id="pVQryn7kTx1md9agL7nV-8" value="Remember me&amp;nbsp;" style="text;html=1;strokeColor=none;fillColor=none;align=center;verticalAlign=middle;whiteSpace=wrap;rounded=0;fontSize=25;" vertex="1" parent="1">
          <mxGeometry x="360" y="390" width="210" height="30" as="geometry" />
        </mxCell>
        <mxCell id="pVQryn7kTx1md9agL7nV-9" value="" style="shape=image;html=1;verticalAlign=top;verticalLabelPosition=bottom;labelBackgroundColor=#ffffff;imageAspect=0;aspect=fixed;image=https://cdn1.iconfinder.com/data/icons/material-core/18/check-box-outline-blank-128.png;fontSize=25;" vertex="1" parent="1">
          <mxGeometry x="340" y="395" width="15" height="15" as="geometry" />
        </mxCell>
      </root>
    </mxGraphModel>
  </diagram>
  <diagram id="te0MDMzY7ls2ohSrFojv" name="Page-2">
    <mxGraphModel dx="1635" dy="962" grid="1" gridSize="10" guides="1" tooltips="1" connect="1" arrows="1" fold="1" page="1" pageScale="1" pageWidth="827" pageHeight="1169" math="0" shadow="0">
      <root>
        <mxCell id="0" />
        <mxCell id="1" parent="0" />
        <mxCell id="SUt7A-g88ls36aaBiQAa-1" value="" style="rounded=0;whiteSpace=wrap;html=1;" vertex="1" parent="1">
          <mxGeometry x="69" y="100" width="690" height="440" as="geometry" />
        </mxCell>
        <mxCell id="SUt7A-g88ls36aaBiQAa-2" value="" style="endArrow=none;html=1;rounded=0;exitX=-0.001;exitY=0.141;exitDx=0;exitDy=0;exitPerimeter=0;entryX=1.001;entryY=0.139;entryDx=0;entryDy=0;entryPerimeter=0;" edge="1" parent="1" source="SUt7A-g88ls36aaBiQAa-1" target="SUt7A-g88ls36aaBiQAa-1">
          <mxGeometry width="50" height="50" relative="1" as="geometry">
            <mxPoint x="300" y="190" as="sourcePoint" />
            <mxPoint x="350" y="140" as="targetPoint" />
          </mxGeometry>
        </mxCell>
        <mxCell id="SUt7A-g88ls36aaBiQAa-3" value="&lt;font style=&quot;font-size: 33px;&quot;&gt;iWatch&lt;/font&gt;" style="text;html=1;strokeColor=none;fillColor=none;align=center;verticalAlign=middle;whiteSpace=wrap;rounded=0;" vertex="1" parent="1">
          <mxGeometry x="80" y="120" width="280" height="30" as="geometry" />
        </mxCell>
        <mxCell id="SUt7A-g88ls36aaBiQAa-4" value="" style="shape=image;html=1;verticalAlign=top;verticalLabelPosition=bottom;labelBackgroundColor=#ffffff;imageAspect=0;aspect=fixed;image=https://cdn1.iconfinder.com/data/icons/science-technology-outline-24-px/24/Body_organ_eye_optical_view_visual-128.png;fontSize=33;" vertex="1" parent="1">
          <mxGeometry x="670" y="110" width="50" height="50" as="geometry" />
        </mxCell>
        <mxCell id="SUt7A-g88ls36aaBiQAa-5" value="" style="rounded=1;whiteSpace=wrap;html=1;fontSize=33;" vertex="1" parent="1">
          <mxGeometry x="200" y="250" width="440" height="200" as="geometry" />
        </mxCell>
        <mxCell id="SUt7A-g88ls36aaBiQAa-10" value="System Credentials" style="text;html=1;strokeColor=none;fillColor=none;align=center;verticalAlign=middle;whiteSpace=wrap;rounded=0;fontSize=25;" vertex="1" parent="1">
          <mxGeometry x="210" y="260" width="360" height="30" as="geometry" />
        </mxCell>
        <mxCell id="SUt7A-g88ls36aaBiQAa-11" value="User" style="text;html=1;strokeColor=none;fillColor=none;align=center;verticalAlign=middle;whiteSpace=wrap;rounded=0;fontSize=25;" vertex="1" parent="1">
          <mxGeometry x="230" y="307.5" width="100" height="25" as="geometry" />
        </mxCell>
        <mxCell id="SUt7A-g88ls36aaBiQAa-13" value="Password" style="text;html=1;strokeColor=none;fillColor=none;align=center;verticalAlign=middle;whiteSpace=wrap;rounded=0;fontSize=25;" vertex="1" parent="1">
          <mxGeometry x="250" y="350" width="60" height="30" as="geometry" />
        </mxCell>
        <mxCell id="SUt7A-g88ls36aaBiQAa-14" value="Save Credentials" style="text;html=1;strokeColor=none;fillColor=none;align=center;verticalAlign=middle;whiteSpace=wrap;rounded=0;fontSize=25;" vertex="1" parent="1">
          <mxGeometry x="320" y="410" width="200" height="30" as="geometry" />
        </mxCell>
        <mxCell id="SUt7A-g88ls36aaBiQAa-15" value="" style="shape=image;html=1;verticalAlign=top;verticalLabelPosition=bottom;labelBackgroundColor=#ffffff;imageAspect=0;aspect=fixed;image=https://cdn1.iconfinder.com/data/icons/material-core/18/check-box-outline-128.png;fontSize=25;" vertex="1" parent="1">
          <mxGeometry x="290" y="412.5" width="25" height="25" as="geometry" />
        </mxCell>
      </root>
    </mxGraphModel>
  </diagram>
  <diagram id="rFevX5Gpi6bckasTbrvf" name="Page-3">
    <mxGraphModel dx="3126" dy="988" grid="1" gridSize="10" guides="1" tooltips="1" connect="1" arrows="1" fold="1" page="1" pageScale="1" pageWidth="827" pageHeight="1169" math="0" shadow="0">
      <root>
        <mxCell id="0" />
        <mxCell id="1" parent="0" />
        <mxCell id="jpYVL67GmzQsHdbJx6K0-1" value="" style="rounded=0;whiteSpace=wrap;html=1;" vertex="1" parent="1">
          <mxGeometry x="-1559.31" y="100" width="690" height="440" as="geometry" />
        </mxCell>
        <mxCell id="jpYVL67GmzQsHdbJx6K0-2" value="" style="endArrow=none;html=1;rounded=0;exitX=-0.001;exitY=0.141;exitDx=0;exitDy=0;exitPerimeter=0;entryX=1.001;entryY=0.139;entryDx=0;entryDy=0;entryPerimeter=0;" edge="1" parent="1" source="jpYVL67GmzQsHdbJx6K0-1" target="jpYVL67GmzQsHdbJx6K0-1">
          <mxGeometry width="50" height="50" relative="1" as="geometry">
            <mxPoint x="-1328.31" y="190" as="sourcePoint" />
            <mxPoint x="-1278.31" y="140" as="targetPoint" />
          </mxGeometry>
        </mxCell>
        <mxCell id="jpYVL67GmzQsHdbJx6K0-3" value="&lt;font style=&quot;font-size: 33px;&quot;&gt;iWatch&lt;/font&gt;" style="text;html=1;strokeColor=none;fillColor=none;align=center;verticalAlign=middle;whiteSpace=wrap;rounded=0;" vertex="1" parent="1">
          <mxGeometry x="-1620" y="120" width="280" height="30" as="geometry" />
        </mxCell>
        <mxCell id="jpYVL67GmzQsHdbJx6K0-4" value="" style="shape=image;html=1;verticalAlign=top;verticalLabelPosition=bottom;labelBackgroundColor=#ffffff;imageAspect=0;aspect=fixed;image=https://cdn1.iconfinder.com/data/icons/science-technology-outline-24-px/24/Body_organ_eye_optical_view_visual-128.png;fontSize=33;" vertex="1" parent="1">
          <mxGeometry x="-958.31" y="110" width="50" height="50" as="geometry" />
        </mxCell>
        <mxCell id="jpYVL67GmzQsHdbJx6K0-11" value="System Data" style="text;html=1;strokeColor=none;fillColor=none;align=center;verticalAlign=middle;whiteSpace=wrap;rounded=0;fontSize=25;" vertex="1" parent="1">
          <mxGeometry x="-1600" y="170" width="280" height="30" as="geometry" />
        </mxCell>
        <mxCell id="jpYVL67GmzQsHdbJx6K0-13" value="" style="shape=image;html=1;verticalAlign=top;verticalLabelPosition=bottom;labelBackgroundColor=#ffffff;imageAspect=0;aspect=fixed;image=https://cdn2.iconfinder.com/data/icons/bitsies/128/Dashboard-128.png;fontSize=25;" vertex="1" parent="1">
          <mxGeometry x="-1388.31" y="330" width="140" height="140" as="geometry" />
        </mxCell>
        <mxCell id="91BxB7KSmbJ1RJsyMcMA-1" value="" style="shape=image;html=1;verticalAlign=top;verticalLabelPosition=bottom;labelBackgroundColor=#ffffff;imageAspect=0;aspect=fixed;image=https://cdn4.iconfinder.com/data/icons/iphone-calculator-shopping-report/128/barChart.png;fontSize=25;" vertex="1" parent="1">
          <mxGeometry x="-1238.31" y="240" width="230" height="230" as="geometry" />
        </mxCell>
        <mxCell id="91BxB7KSmbJ1RJsyMcMA-3" value="" style="rounded=0;whiteSpace=wrap;html=1;" vertex="1" parent="1">
          <mxGeometry x="-1559.31" y="650" width="690" height="440" as="geometry" />
        </mxCell>
        <mxCell id="91BxB7KSmbJ1RJsyMcMA-4" value="" style="endArrow=none;html=1;rounded=0;exitX=-0.001;exitY=0.141;exitDx=0;exitDy=0;exitPerimeter=0;entryX=1.001;entryY=0.139;entryDx=0;entryDy=0;entryPerimeter=0;" edge="1" parent="1" source="91BxB7KSmbJ1RJsyMcMA-3" target="91BxB7KSmbJ1RJsyMcMA-3">
          <mxGeometry width="50" height="50" relative="1" as="geometry">
            <mxPoint x="-1328.31" y="740" as="sourcePoint" />
            <mxPoint x="-1278.31" y="690" as="targetPoint" />
          </mxGeometry>
        </mxCell>
        <mxCell id="91BxB7KSmbJ1RJsyMcMA-5" value="" style="shape=image;html=1;verticalAlign=top;verticalLabelPosition=bottom;labelBackgroundColor=#ffffff;imageAspect=0;aspect=fixed;image=https://cdn1.iconfinder.com/data/icons/science-technology-outline-24-px/24/Body_organ_eye_optical_view_visual-128.png;fontSize=33;" vertex="1" parent="1">
          <mxGeometry x="-958.31" y="660" width="50" height="50" as="geometry" />
        </mxCell>
        <mxCell id="91BxB7KSmbJ1RJsyMcMA-6" value="" style="shape=image;html=1;verticalAlign=top;verticalLabelPosition=bottom;labelBackgroundColor=#ffffff;imageAspect=0;aspect=fixed;image=https://cdn2.iconfinder.com/data/icons/bitsies/128/Dashboard-128.png;fontSize=25;" vertex="1" parent="1">
          <mxGeometry x="-1388.31" y="880" width="140" height="140" as="geometry" />
        </mxCell>
        <mxCell id="91BxB7KSmbJ1RJsyMcMA-7" value="" style="shape=image;html=1;verticalAlign=top;verticalLabelPosition=bottom;labelBackgroundColor=#ffffff;imageAspect=0;aspect=fixed;image=https://cdn4.iconfinder.com/data/icons/iphone-calculator-shopping-report/128/barChart.png;fontSize=25;" vertex="1" parent="1">
          <mxGeometry x="-1238.31" y="790" width="230" height="230" as="geometry" />
        </mxCell>
        <mxCell id="91BxB7KSmbJ1RJsyMcMA-8" value="&lt;font style=&quot;font-size: 33px;&quot;&gt;iWatch&lt;/font&gt;" style="text;html=1;strokeColor=none;fillColor=none;align=center;verticalAlign=middle;whiteSpace=wrap;rounded=0;" vertex="1" parent="1">
          <mxGeometry x="-1610" y="670" width="280" height="30" as="geometry" />
        </mxCell>
        <mxCell id="91BxB7KSmbJ1RJsyMcMA-9" value="System Data" style="text;html=1;strokeColor=none;fillColor=none;align=center;verticalAlign=middle;whiteSpace=wrap;rounded=0;fontSize=25;" vertex="1" parent="1">
          <mxGeometry x="-1570" y="720" width="200" height="40" as="geometry" />
        </mxCell>
        <mxCell id="91BxB7KSmbJ1RJsyMcMA-11" value="" style="rounded=0;whiteSpace=wrap;html=1;fontSize=25;" vertex="1" parent="1">
          <mxGeometry x="-1559.31" y="760" width="159.31" height="330" as="geometry" />
        </mxCell>
        <mxCell id="91BxB7KSmbJ1RJsyMcMA-12" value="Sys 1" style="text;html=1;strokeColor=none;fillColor=none;align=center;verticalAlign=middle;whiteSpace=wrap;rounded=0;fontSize=25;" vertex="1" parent="1">
          <mxGeometry x="-1559.31" y="770" width="140" height="30" as="geometry" />
        </mxCell>
        <mxCell id="91BxB7KSmbJ1RJsyMcMA-16" value="Sys 2" style="text;html=1;strokeColor=none;fillColor=none;align=center;verticalAlign=middle;whiteSpace=wrap;rounded=0;fontSize=25;" vertex="1" parent="1">
          <mxGeometry x="-1559.31" y="800" width="140" height="30" as="geometry" />
        </mxCell>
        <mxCell id="91BxB7KSmbJ1RJsyMcMA-17" value="Sys 3" style="text;html=1;strokeColor=none;fillColor=none;align=center;verticalAlign=middle;whiteSpace=wrap;rounded=0;fontSize=25;" vertex="1" parent="1">
          <mxGeometry x="-1559.31" y="830" width="140" height="30" as="geometry" />
        </mxCell>
        <mxCell id="91BxB7KSmbJ1RJsyMcMA-18" value="Sys 4" style="text;html=1;strokeColor=none;fillColor=none;align=center;verticalAlign=middle;whiteSpace=wrap;rounded=0;fontSize=25;" vertex="1" parent="1">
          <mxGeometry x="-1559.31" y="860" width="140" height="30" as="geometry" />
        </mxCell>
        <mxCell id="91BxB7KSmbJ1RJsyMcMA-19" value="Sys 5" style="text;html=1;strokeColor=none;fillColor=none;align=center;verticalAlign=middle;whiteSpace=wrap;rounded=0;fontSize=25;" vertex="1" parent="1">
          <mxGeometry x="-1559.31" y="890" width="140" height="30" as="geometry" />
        </mxCell>
      </root>
    </mxGraphModel>
  </diagram>
</mxfile>
